<?xml version="1.0" encoding="utf-8"?>
<!-- Generator: Adobe Illustrator 16.0.0, SVG Export Plug-In . SVG Version: 6.00 Build 0)  -->
<!DOCTYPE svg PUBLIC "-//W3C//DTD SVG 1.1//EN" "http://www.w3.org/Graphics/SVG/1.1/DTD/svg11.dtd">
<svg version="1.1" id="Layer_1" xmlns="http://www.w3.org/2000/svg" xmlns:xlink="http://www.w3.org/1999/xlink" x="0px" y="0px"
	 width="210.109px" height="84.511px" viewBox="0 0 210.109 84.511" enable-background="new 0 0 210.109 84.511"
	 xml:space="preserve">
<g>
	<path fill="#FFFFFF" d="M92.927,62.089c-1.505,3.754-3.01,7.509-4.515,11.263c-1.228,3.063-2.476,6.121-3.663,9.202
		c-0.229,0.595-0.503,0.805-1.113,0.751c-1.125-0.099-2.509,0.437-3.315-0.214c-0.75-0.602-0.914-1.959-1.314-2.992
		c-2.234-5.76-4.463-11.521-6.694-17.28c-0.101-0.259-0.214-0.512-0.509-0.729c0,0.504,0,1.009,0,1.514
		c0,6.249-0.014,12.498,0.021,18.746c0.004,0.795-0.229,1.016-0.978,0.963c-0.907-0.063-1.826-0.066-2.732,0.001
		c-0.826,0.063-1.105-0.151-1.092-1.06c0.056-4.045,0.023-8.09,0.023-12.135c0-5.164,0.029-10.328-0.023-15.49
		c-0.011-0.983,0.274-1.217,1.194-1.16c1.362,0.084,2.738,0.099,4.099-0.004c0.964-0.071,1.331,0.322,1.648,1.178
		c2.708,7.255,5.463,14.492,8.206,21.734c0.079,0.207,0.182,0.406,0.36,0.81c0.519-1.306,0.979-2.444,1.425-3.588
		c2.472-6.334,4.959-12.662,7.389-19.013c0.319-0.834,0.677-1.178,1.593-1.121c1.459,0.094,2.928,0.052,4.392,0.015
		c0.566-0.015,0.705,0.177,0.704,0.728c-0.015,9.438-0.015,18.877,0.001,28.315c0.001,0.585-0.131,0.817-0.755,0.79
		c-1.104-0.051-2.216-0.063-3.318,0.003c-0.721,0.042-0.839-0.231-0.837-0.892c0.023-6.479,0.016-12.959,0.016-19.438
		c0-0.287,0-0.576,0-0.865C93.067,62.11,92.997,62.1,92.927,62.089z"/>
	<path fill="#FFFFFF" d="M113.472,31.003c0.048,2.922-0.358,5.752-1.638,8.413c-1.548,3.221-4.013,5.36-7.394,6.386
		c-3.694,1.121-7.391,1.074-10.99-0.354c-3.292-1.309-5.566-3.726-6.736-7.092c-1.62-4.661-1.599-9.351,0.191-13.967
		c1.517-3.914,4.388-6.339,8.391-7.393c2.919-0.77,5.866-0.791,8.77,0.024c5.305,1.49,8.125,5.225,9.108,10.553
		C113.385,28.708,113.467,29.852,113.472,31.003z M105.665,31.554c-0.005-1.713-0.162-3.398-0.79-5.017
		c-0.755-1.941-2.14-3.131-4.176-3.386c-2.217-0.277-4.418-0.063-5.705,2.074c-2.225,3.692-2.007,7.641-0.599,11.531
		c0.775,2.146,2.766,3.184,5.026,3.176c2.562-0.009,4.453-0.987,5.447-3.462C105.501,34.893,105.65,33.235,105.665,31.554z"/>
	<path fill="#FFFFFF" d="M143.069,36.073c0,1.81-0.053,3.621,0.024,5.427c0.033,0.77-0.241,1.215-0.822,1.604
		c-3.97,2.657-8.333,3.745-13.063,3.362c-2.604-0.211-5.028-0.953-7.152-2.557c-2.65-2-4.004-4.788-4.61-7.966
		c-0.721-3.769-0.604-7.519,0.724-11.16c1.737-4.767,5.168-7.417,10.104-8.13c3.684-0.532,7.208-0.146,10.381,2.005
		c2.229,1.511,3.38,3.74,3.998,6.309c0.094,0.388-0.007,0.515-0.398,0.554c-2.198,0.213-4.396,0.449-6.592,0.684
		c-0.318,0.034-0.481-0.104-0.561-0.4c-0.671-2.531-2.498-3.274-4.845-3.145c-2.285,0.127-3.906,1.301-4.595,3.49
		c-1.139,3.632-1.188,7.299,0.168,10.906c0.611,1.626,1.854,2.65,3.491,3.01c2.057,0.449,4.123,0.395,6.113-0.466
		c0.514-0.222,0.771-0.488,0.703-1.105c-0.079-0.715-0.065-1.445-0.032-2.167c0.023-0.527-0.164-0.671-0.67-0.654
		c-1.073,0.035-2.148-0.009-3.223,0.013c-0.459,0.01-0.636-0.141-0.63-0.619c0.021-1.645,0.025-3.29-0.003-4.935
		c-0.01-0.543,0.215-0.661,0.696-0.659c3.386,0.014,6.771,0.019,10.157-0.005c0.532-0.004,0.652,0.187,0.647,0.683
		c-0.022,1.974-0.01,3.947-0.01,5.921C143.072,36.073,143.071,36.073,143.069,36.073z"/>
	<path fill="#FFFFFF" d="M163.018,36.333c0.391,0,0.782,0.028,1.171-0.006c1.4-0.122,2.632-0.153,2.94,1.771
		c0.153,0.955,1.102,1.517,2.021,1.841c1.58,0.558,3.203,0.525,4.794,0.095c1.295-0.35,1.955-1.284,1.957-2.503
		c0.002-1.156-0.63-2.08-1.928-2.404c-2.143-0.535-4.325-0.9-6.479-1.397c-2.01-0.464-3.96-1.146-5.499-2.597
		c-4.081-3.847-2.771-11.231,2.437-13.411c4.291-1.797,8.688-1.804,13.007-0.054c3.052,1.236,4.701,3.698,5.352,6.904
		c0.128,0.631-0.112,0.799-0.68,0.851c-1.908,0.173-3.813,0.395-5.72,0.57c-0.319,0.029-0.665,0.142-0.905-0.328
		c-1.371-2.681-2.4-3.244-5.292-2.993c-1.942,0.169-3.007,0.991-3.089,2.387c-0.072,1.235,0.768,2.086,2.64,2.53
		c2.681,0.636,5.436,0.938,8.044,1.903c5.49,2.028,7.484,8.477,4.018,13.124c-1.418,1.9-3.411,2.872-5.654,3.391
		c-3.592,0.832-7.157,0.783-10.659-0.436c-3.761-1.309-6.065-4.493-6.313-8.516c-0.037-0.588,0.149-0.672,0.623-0.665
		c1.071,0.014,2.145,0.004,3.217,0.004C163.018,36.374,163.018,36.354,163.018,36.333z"/>
	<path fill="#FFFFFF" d="M61.286,68.399c0.089,2.524-0.297,4.979-1.257,7.31c-1.607,3.902-4.42,6.506-8.465,7.66
		c-3.495,0.996-7.017,0.994-10.459-0.18C35.642,81.328,32.82,77.24,32,71.63c-0.524-3.592-0.287-7.127,1.128-10.527
		c1.963-4.717,5.563-7.305,10.45-8.146c3.296-0.566,6.556-0.317,9.65,1.045c4.693,2.065,6.994,5.936,7.841,10.863
		C61.271,66.037,61.313,67.214,61.286,68.399z M55.835,68.816c-0.006-1.35-0.066-2.292-0.188-3.24
		c-0.644-5.025-3.774-8.768-9.507-8.564c-3.913,0.142-6.977,2.33-8.148,6.107c-0.863,2.782-0.971,5.619-0.498,8.465
		c0.807,4.849,3.263,7.5,7.702,8.067c4.527,0.58,8.231-1.153,9.861-5.909C55.647,72.017,55.852,70.234,55.835,68.816z"/>
	<path fill="#FFFFFF" d="M183.949,83.292c-1.84,0-3.586-0.016-5.332,0.01c-0.487,0.008-0.554-0.325-0.706-0.645
		c-1.66-3.482-3.343-6.953-4.979-10.447c-0.277-0.592-0.589-0.781-1.243-0.762c-1.95,0.061-3.905,0.049-5.856,0.008
		c-0.637-0.013-0.826,0.17-0.819,0.821c0.03,3.388-0.005,6.772,0.029,10.16c0.007,0.692-0.181,0.905-0.867,0.873
		c-1.2-0.058-2.407-0.043-3.61-0.004c-0.558,0.019-0.771-0.181-0.719-0.724c0.015-0.162-0.005-0.328-0.005-0.492
		c0-9.174,0.011-18.348-0.016-27.521c-0.002-0.816,0.136-1.123,1.05-1.107c3.48,0.065,6.963,0.019,10.445,0.027
		c2.463,0.006,4.844,0.402,7.058,1.573c2.848,1.506,4.167,3.937,4.207,7.118c0.04,3.268-1.117,5.932-4.088,7.488
		c-0.935,0.49-0.961,0.845-0.498,1.728c1.896,3.616,3.697,7.278,5.53,10.929C183.673,82.61,183.785,82.912,183.949,83.292z
		 M165.026,62.39c0,1.381,0.025,2.763-0.012,4.143c-0.018,0.596,0.153,0.803,0.765,0.791c1.854-0.037,3.711,0.041,5.563-0.033
		c1.556-0.062,3.148-0.168,4.419-1.25c1.611-1.371,1.599-3.244,1.265-5.08c-0.363-1.996-1.941-2.785-3.721-3.109
		c-2.577-0.471-5.192-0.121-7.789-0.227c-0.496-0.021-0.493,0.271-0.491,0.623C165.03,59.628,165.026,61.009,165.026,62.39z"/>
	<path fill="#FFFFFF" d="M188.38,68.382c0.001-4.637,0.016-9.274-0.014-13.914c-0.004-0.732,0.146-1.004,0.951-0.998
		c6.38,0.035,12.76,0.033,19.14,0.002c0.753-0.004,0.964,0.229,0.912,0.949c-0.058,0.818-0.062,1.647,0.001,2.465
		c0.056,0.73-0.238,0.857-0.889,0.854c-4.655-0.025-9.312,0.004-13.965-0.029c-0.73-0.006-0.953,0.19-0.938,0.933
		c0.047,2.104,0.049,4.21,0.006,6.313c-0.014,0.686,0.231,0.807,0.842,0.803c4.361-0.023,8.725,0.011,13.086-0.033
		c0.8-0.008,1,0.249,0.948,0.997c-0.059,0.851-0.066,1.713,0,2.563c0.063,0.791-0.345,0.816-0.938,0.814
		c-4.297-0.018-8.594,0.012-12.892-0.025c-0.78-0.008-1.071,0.162-1.051,1.014c0.059,2.301,0.063,4.604-0.003,6.906
		c-0.025,0.871,0.284,1,1.05,0.994c4.852-0.033,9.701,0.004,14.552-0.035c0.871-0.008,1.048,0.246,0.862,1.063
		c-0.187,0.828-0.242,1.687-0.345,2.532c-0.064,0.527-0.258,0.766-0.867,0.763c-6.543-0.026-13.086-0.028-19.629,0.001
		c-0.735,0.004-0.837-0.279-0.834-0.918C188.39,77.724,188.38,73.052,188.38,68.382z"/>
	<path fill="#FFFFFF" d="M29.539,41.271c-1.646,0.118-3.025,1.019-4.516,1.586c-2.457,0.938-4.884,1.953-7.313,2.96
		c-0.542,0.226-1.036,0.226-1.569,0.007c-3.682-1.508-7.363-3.01-11.053-4.496c-0.504-0.203-0.71-0.458-0.707-1.055
		c0.033-4.769,0.038-9.538-0.002-14.308c-0.005-0.664,0.247-0.882,0.786-1.076c3.653-1.317,7.294-2.667,10.947-3.982
		c0.557-0.2,0.696-0.522,0.693-1.093c-0.024-4.67,0-9.341-0.032-14.011C16.768,5.02,16.927,4.6,17.747,4.311
		c3.676-1.294,7.322-2.678,10.976-4.04c0.507-0.189,0.976-0.256,1.508-0.052c3.758,1.44,7.52,2.872,11.295,4.267
		c0.592,0.219,0.758,0.509,0.756,1.131c-0.019,5.031,0.002,10.063,0.012,15.096c-3.913,1.587-7.815,3.201-11.749,4.738
		c-0.757,0.296-0.945,0.684-0.94,1.445c0.032,4.303,0.019,8.605,0.013,12.908C29.616,40.293,29.566,40.782,29.539,41.271z
		 M16.247,37.419c0.001,0,0.003,0,0.005,0c0-2.037-0.016-4.075,0.012-6.112c0.007-0.498-0.126-0.787-0.604-0.962
		c-3.066-1.123-6.13-2.249-9.182-3.41c-0.712-0.271-0.901-0.11-0.896,0.642c0.025,3.943,0.024,7.887-0.002,11.831
		c-0.004,0.604,0.229,0.854,0.755,1.063c3.007,1.195,6.006,2.412,8.992,3.66c0.802,0.334,0.945,0.062,0.932-0.697
		C16.224,41.429,16.247,39.424,16.247,37.419z M28.833,17c0-2.036-0.021-4.073,0.015-6.109c0.009-0.555-0.179-0.821-0.678-1.003
		c-3.05-1.107-6.095-2.229-9.133-3.369c-0.582-0.219-0.792-0.153-0.787,0.54c0.025,3.975,0.019,7.949,0.003,11.924
		c-0.001,0.453,0.122,0.709,0.563,0.885c3.104,1.236,6.2,2.49,9.292,3.757c0.565,0.231,0.741,0.105,0.732-0.514
		C28.815,21.074,28.831,19.037,28.833,17z M30.26,17.03c-0.001,0-0.002,0-0.004,0c0,1.972,0.038,3.945-0.017,5.917
		c-0.024,0.883,0.252,0.9,0.946,0.614c2.976-1.228,5.962-2.427,8.956-3.608c0.501-0.198,0.679-0.462,0.675-1.013
		c-0.024-3.911-0.026-7.823,0-11.735c0.004-0.707-0.146-0.844-0.826-0.59c-3.012,1.126-6.037,2.219-9.071,3.283
		c-0.548,0.192-0.668,0.505-0.665,1.018C30.27,12.954,30.26,14.992,30.26,17.03z M17.623,37.406c0,1.973-0.003,3.946,0.001,5.919
		c0.002,1.096,0.026,1.119,1.001,0.729c2.945-1.18,5.882-2.379,8.829-3.551c0.582-0.231,0.837-0.541,0.83-1.231
		c-0.04-3.848-0.044-7.696-0.001-11.545c0.01-0.93-0.291-0.941-1.015-0.671c-2.939,1.101-5.888,2.182-8.85,3.218
		c-0.645,0.227-0.826,0.555-0.813,1.212C17.648,33.458,17.622,35.433,17.623,37.406z M16.86,29.359
		c0.217-0.054,0.346-0.074,0.466-0.117c2.893-1.038,5.787-2.072,8.672-3.132c0.167-0.062,0.51-0.071,0.468-0.387
		c-0.035-0.272-0.32-0.276-0.529-0.356c-2.812-1.073-5.621-2.149-8.43-3.229c-0.378-0.146-0.755-0.172-1.137-0.029
		c-2.814,1.052-5.632,2.1-8.442,3.163c-0.19,0.072-0.511,0.036-0.536,0.334c-0.033,0.37,0.33,0.367,0.546,0.448
		c2.235,0.837,4.479,1.655,6.72,2.481C15.416,28.815,16.169,29.101,16.86,29.359z M39.414,5.266
		c-3.367-1.28-6.455-2.449-9.537-3.634c-0.311-0.118-0.555-0.026-0.834,0.078c-2.734,1.018-5.478,2.019-8.21,3.044
		c-0.271,0.103-0.671,0.076-0.768,0.569c2.513,0.938,5.05,1.824,7.536,2.84c1.334,0.544,2.522,0.588,3.886,0.023
		C33.998,7.146,36.584,6.295,39.414,5.266z"/>
	<path fill="#FFFFFF" d="M0.123,68.8c-0.031-3.739,0.601-6.998,2.428-9.906c2.49-3.959,6.224-5.832,10.758-6.143
		c2.883-0.196,5.705,0.119,8.32,1.525c3.16,1.7,4.579,4.598,5.401,7.92c0.101,0.407-0.123,0.518-0.461,0.563
		c-1.414,0.189-2.826,0.384-4.238,0.582c-0.302,0.043-0.458-0.021-0.542-0.364c-0.146-0.604-0.34-1.198-0.566-1.774
		c-1.048-2.664-3.048-3.967-5.834-4.16c-6.304-0.44-8.974,3.961-9.582,8.746c-0.377,2.969-0.208,5.889,0.931,8.699
		c2.286,5.639,8.034,6.155,11.778,4.43c1.948-0.899,2.924-2.643,3.304-4.707c0.139-0.758,0.421-1.022,1.195-0.981
		c1.33,0.069,2.668,0.032,4.001,0.013c0.494-0.009,0.646,0.061,0.545,0.651c-0.984,5.767-5.092,9.522-10.879,10.039
		c-2.966,0.263-5.847,0.073-8.598-1.104c-4.319-1.854-6.575-5.371-7.529-9.857C0.24,71.494,0.057,69.992,0.123,68.8z"/>
	<path fill="#FFFFFF" d="M126.484,83.289c0.843-2.111,1.645-4.14,2.459-6.16c3.044-7.551,6.101-15.096,9.125-22.653
		c0.295-0.737,0.654-1.065,1.481-1.007c1.198,0.084,2.408,0.039,3.612,0.012c0.448-0.01,0.704,0.122,0.879,0.559
		c3.863,9.614,7.738,19.226,11.608,28.836c0.046,0.115,0.067,0.24,0.117,0.418c-1.71,0-3.367-0.019-5.024,0.012
		c-0.491,0.009-0.659-0.217-0.818-0.635c-0.802-2.11-1.657-4.199-2.444-6.314c-0.205-0.551-0.467-0.736-1.048-0.732
		c-3.581,0.026-7.163,0.031-10.744-0.002c-0.641-0.006-0.909,0.233-1.119,0.803c-0.771,2.086-1.591,4.154-2.383,6.232
		c-0.131,0.344-0.211,0.652-0.7,0.645C129.862,83.272,128.238,83.289,126.484,83.289z M141.078,59.238
		c-0.184,0.289-0.269,0.385-0.311,0.496c-1.402,3.698-2.788,7.402-4.21,11.096c-0.278,0.723,0.113,0.668,0.575,0.668
		c2.507-0.006,5.013-0.002,7.519-0.006c0.335,0,0.671-0.029,1.089-0.05C144.179,67.353,142.666,63.394,141.078,59.238z"/>
	<path fill="#FFFFFF" d="M104.947,68.316c0-4.639,0.017-9.275-0.017-13.914c-0.006-0.73,0.172-0.939,0.914-0.932
		c3.646,0.041,7.293-0.002,10.938,0.023c2.593,0.02,5.108,0.438,7.383,1.803c1.936,1.16,3.068,2.894,3.399,5.127
		c0.435,2.932,0.31,5.785-1.626,8.229c-1.571,1.983-3.79,2.777-6.173,3.192c-2.874,0.5-5.777,0.275-8.67,0.287
		c-0.768,0.002-0.992,0.211-0.981,0.992c0.043,3.092-0.01,6.185,0.038,9.274c0.011,0.769-0.228,0.944-0.936,0.909
		c-1.137-0.059-2.279-0.053-3.417,0.001c-0.685,0.03-0.875-0.19-0.87-0.884C104.96,77.724,104.946,73.021,104.947,68.316z
		 M110.133,62.755c0,1.513,0,3.023-0.001,4.535c0,0.336-0.037,0.672,0.473,0.651c2.691-0.104,5.403,0.272,8.077-0.229
		c2.719-0.512,3.956-2.196,3.917-5.131c-0.037-2.828-1.259-4.289-4.051-4.752c-2.615-0.433-5.258-0.098-7.886-0.205
		c-0.56-0.022-0.534,0.312-0.532,0.693C110.135,59.796,110.132,61.275,110.133,62.755z"/>
	<path fill="#FFFFFF" d="M197.398,17.051c3.679,0,7.356,0.017,11.036-0.016c0.668-0.006,0.904,0.154,0.882,0.862
		c-0.052,1.577-0.052,3.158-0.007,4.736c0.018,0.648-0.17,0.843-0.814,0.831c-2.146-0.039-4.297,0.012-6.444-0.035
		c-0.74-0.017-0.982,0.162-0.979,0.963c0.035,6.776,0.008,13.553,0.04,20.328c0.004,0.795-0.157,1.082-1.002,1.049
		c-1.787-0.07-3.58-0.014-5.37-0.027c-1.283-0.01-1.221,0.271-1.221-1.287c-0.001-6.645-0.017-13.289,0.019-19.934
		c0.005-0.84-0.149-1.13-1.052-1.096c-2.113,0.079-4.231,0.006-6.347,0.037c-0.61,0.009-0.862-0.125-0.841-0.81
		c0.052-1.577,0.05-3.158,0-4.736c-0.021-0.689,0.184-0.888,0.868-0.882C189.911,17.067,193.654,17.051,197.398,17.051z"/>
	<path fill="#FFFFFF" d="M63.384,31.43c0-4.471,0.02-8.94-0.018-13.41c-0.006-0.778,0.201-1.01,0.974-0.987
		c1.886,0.056,3.774,0.06,5.659,0.002c0.767-0.024,0.907,0.246,0.905,0.954c-0.024,6.771,0.005,13.542-0.036,20.313
		c-0.006,0.89,0.229,1.081,1.079,1.068c3.544-0.05,7.091,0.014,10.636-0.036c0.838-0.012,0.939,0.218,0.822,0.987
		c-0.231,1.521-0.39,3.059-0.479,4.596c-0.042,0.729-0.34,0.844-0.962,0.842c-5.887-0.018-11.774-0.028-17.663,0.011
		c-0.835,0.006-0.935-0.313-0.931-1.026C63.397,40.304,63.384,35.866,63.384,31.43z"/>
	<path fill="#FFFFFF" d="M155.479,31.435c0,4.473-0.013,8.945,0.014,13.418c0.004,0.662-0.139,0.923-0.851,0.906
		c-1.984-0.047-3.971-0.032-5.955-0.008c-0.546,0.008-0.73-0.152-0.729-0.724c0.017-9.076,0.019-18.154-0.002-27.23
		c-0.002-0.644,0.242-0.76,0.801-0.752c1.92,0.025,3.843,0.041,5.762-0.01c0.757-0.021,0.987,0.187,0.98,0.98
		C155.459,22.488,155.479,26.962,155.479,31.435z"/>
	<path fill="#FFFFFF" d="M29.539,41.271c0.027-0.489,0.077-0.979,0.077-1.468c0.006-4.303,0.02-8.604-0.013-12.908
		c-0.005-0.762,0.184-1.149,0.94-1.445c3.933-1.537,7.835-3.151,11.749-4.738c3.126,1.159,6.255,2.313,9.379,3.479
		c1.03,0.386,2.441,0.528,2.96,1.285c0.523,0.763,0.174,2.15,0.176,3.265c0.007,3.878-0.021,7.757,0.02,11.635
		c0.007,0.717-0.229,1.025-0.864,1.277c-3.738,1.479-7.461,3.003-11.188,4.509c-0.392,0.157-0.749,0.278-1.207,0.09
		c-3.871-1.588-7.755-3.144-11.633-4.714C29.789,41.479,29.669,41.361,29.539,41.271z M53.288,27
		c-3.456,1.248-6.742,2.44-10.032,3.619c-0.434,0.155-0.474,0.476-0.474,0.855c0,4.107,0.003,8.215-0.013,12.322
		c-0.002,0.561,0.136,0.688,0.671,0.469c3.119-1.275,6.247-2.529,9.373-3.788c0.289-0.116,0.483-0.252,0.482-0.631
		C53.283,35.612,53.288,31.376,53.288,27z M41.323,44.47c0-4.478-0.005-8.81,0.008-13.143c0.001-0.409-0.187-0.581-0.522-0.704
		c-3.123-1.152-6.245-2.306-9.363-3.471c-0.429-0.16-0.652-0.166-0.65,0.406c0.015,4.041,0.014,8.083-0.001,12.125
		c-0.001,0.386,0.12,0.602,0.47,0.741C34.561,41.746,37.858,43.076,41.323,44.47z M51.569,26c-0.242-0.438-0.595-0.442-0.879-0.551
		c-2.209-0.849-4.455-1.612-6.624-2.555c-1.375-0.598-2.599-0.604-3.981-0.029c-2.479,1.03-5.021,1.904-7.621,2.874
		c0.185,0.152,0.27,0.267,0.379,0.308c2.92,1.078,5.848,2.133,8.756,3.238c0.465,0.177,0.828,0.05,1.213-0.086
		c1.499-0.532,2.987-1.09,4.48-1.637C48.706,27.045,50.119,26.529,51.569,26z"/>
	<path fill="#FFFFFF" d="M151.653,11.521c-1.04,0-2.082-0.022-3.121,0.01c-0.503,0.016-0.677-0.135-0.67-0.661
		c0.028-1.972,0.028-3.943,0.002-5.914c-0.008-0.521,0.154-0.674,0.663-0.668c2.146,0.024,4.292,0.021,6.438,0.002
		c0.458-0.004,0.623,0.127,0.618,0.611c-0.022,2.004-0.021,4.01,0.001,6.013c0.005,0.479-0.15,0.627-0.614,0.616
		C153.865,11.502,152.759,11.521,151.653,11.521z"/>
</g>
</svg>
