<?xml version="1.0" encoding="utf-8"?>
<!-- Generator: Adobe Illustrator 16.0.0, SVG Export Plug-In . SVG Version: 6.00 Build 0)  -->
<!DOCTYPE svg PUBLIC "-//W3C//DTD SVG 1.1//EN" "http://www.w3.org/Graphics/SVG/1.1/DTD/svg11.dtd">
<svg version="1.1" id="Layer_1" xmlns="http://www.w3.org/2000/svg" xmlns:xlink="http://www.w3.org/1999/xlink" x="0px" y="0px"
	 width="210.109px" height="84.511px" viewBox="0 0 210.109 84.511" enable-background="new 0 0 210.109 84.511"
	 xml:space="preserve">
<g>
	<path fill-rule="evenodd" clip-rule="evenodd" fill="#1372BA" d="M92.927,62.09c-1.505,3.754-3.01,7.508-4.515,11.262
		c-1.228,3.064-2.476,6.121-3.663,9.202c-0.229,0.595-0.503,0.805-1.113,0.751c-1.125-0.098-2.509,0.437-3.316-0.213
		c-0.75-0.603-0.914-1.96-1.314-2.993c-2.235-5.759-4.463-11.521-6.695-17.28c-0.1-0.259-0.214-0.512-0.508-0.73
		c0,0.504,0,1.009,0,1.514c0,6.249-0.014,12.498,0.021,18.746c0.004,0.795-0.229,1.015-0.978,0.963
		c-0.907-0.062-1.826-0.067-2.732,0.001c-0.826,0.063-1.105-0.151-1.092-1.059c0.056-4.045,0.024-8.091,0.024-12.136
		c0-5.164,0.029-10.327-0.024-15.49c-0.01-0.983,0.275-1.216,1.195-1.159c1.362,0.084,2.738,0.098,4.098-0.004
		c0.964-0.072,1.331,0.322,1.649,1.177c2.708,7.255,5.463,14.492,8.206,21.734c0.079,0.208,0.181,0.407,0.36,0.81
		c0.519-1.306,0.979-2.444,1.425-3.588c2.472-6.334,4.959-12.662,7.389-19.012c0.319-0.835,0.676-1.179,1.592-1.121
		c1.459,0.093,2.928,0.051,4.392,0.014c0.566-0.015,0.705,0.177,0.704,0.727c-0.015,9.438-0.015,18.877,0.001,28.316
		c0.001,0.585-0.131,0.817-0.755,0.79c-1.104-0.051-2.216-0.063-3.318,0.003c-0.721,0.042-0.839-0.232-0.837-0.891
		c0.023-6.479,0.015-12.959,0.015-19.438c0-0.288,0-0.576,0-0.865C93.067,62.11,92.997,62.1,92.927,62.09z"/>
	<path fill-rule="evenodd" clip-rule="evenodd" fill="#3FB54C" d="M113.472,31.003c0.048,2.922-0.358,5.752-1.637,8.413
		c-1.548,3.221-4.013,5.36-7.394,6.387c-3.694,1.12-7.39,1.073-10.99-0.355c-3.292-1.308-5.566-3.725-6.736-7.091
		c-1.62-4.661-1.599-9.351,0.191-13.967c1.517-3.914,4.388-6.339,8.391-7.393c2.919-0.77,5.866-0.791,8.769,0.024
		c5.305,1.49,8.125,5.225,9.109,10.553C113.386,28.708,113.467,29.852,113.472,31.003z M105.665,31.554
		c-0.005-1.713-0.162-3.399-0.79-5.017c-0.755-1.941-2.14-3.131-4.176-3.386c-2.217-0.277-4.418-0.063-5.705,2.074
		c-2.225,3.692-2.007,7.641-0.599,11.531c0.776,2.146,2.766,3.184,5.027,3.176c2.561-0.009,4.453-0.987,5.447-3.462
		C105.501,34.893,105.65,33.235,105.665,31.554z"/>
	<path fill-rule="evenodd" clip-rule="evenodd" fill="#3FB54C" d="M143.069,36.073c0,1.81-0.053,3.621,0.025,5.427
		c0.033,0.77-0.242,1.215-0.823,1.604c-3.969,2.658-8.333,3.745-13.063,3.363c-2.605-0.211-5.029-0.954-7.153-2.557
		c-2.65-2-4.003-4.788-4.61-7.966c-0.721-3.769-0.604-7.519,0.724-11.16c1.737-4.767,5.168-7.417,10.104-8.13
		c3.684-0.532,7.208-0.146,10.381,2.005c2.229,1.511,3.38,3.74,3.998,6.309c0.094,0.388-0.007,0.515-0.398,0.554
		c-2.199,0.213-4.396,0.449-6.592,0.684c-0.318,0.034-0.482-0.104-0.561-0.4c-0.671-2.531-2.498-3.274-4.844-3.145
		c-2.286,0.127-3.907,1.301-4.595,3.49c-1.139,3.632-1.189,7.299,0.168,10.906c0.611,1.626,1.854,2.65,3.491,3.01
		c2.057,0.449,4.123,0.395,6.113-0.466c0.514-0.222,0.771-0.488,0.703-1.105c-0.079-0.715-0.065-1.445-0.032-2.167
		c0.024-0.527-0.164-0.671-0.67-0.654c-1.073,0.035-2.148-0.009-3.222,0.013c-0.459,0.01-0.636-0.141-0.63-0.619
		c0.021-1.645,0.025-3.29-0.003-4.935c-0.01-0.543,0.215-0.661,0.696-0.659c3.386,0.014,6.771,0.019,10.157-0.005
		c0.533-0.004,0.653,0.186,0.648,0.683c-0.023,1.974-0.01,3.947-0.01,5.921C143.072,36.073,143.071,36.073,143.069,36.073z"/>
	<path fill-rule="evenodd" clip-rule="evenodd" fill="#3FB54C" d="M163.018,36.333c0.391,0,0.783,0.028,1.171-0.006
		c1.401-0.122,2.632-0.153,2.941,1.771c0.153,0.955,1.101,1.517,2.02,1.841c1.58,0.558,3.203,0.525,4.794,0.095
		c1.295-0.35,1.955-1.284,1.957-2.503c0.002-1.156-0.63-2.08-1.928-2.404c-2.142-0.535-4.325-0.9-6.478-1.397
		c-2.01-0.464-3.96-1.146-5.499-2.597c-4.081-3.847-2.771-11.231,2.436-13.411c4.291-1.797,8.689-1.804,13.007-0.054
		c3.052,1.236,4.701,3.698,5.352,6.904c0.128,0.631-0.113,0.799-0.68,0.851c-1.908,0.173-3.812,0.395-5.72,0.57
		c-0.319,0.029-0.665,0.142-0.905-0.328c-1.371-2.681-2.4-3.244-5.292-2.993c-1.942,0.169-3.007,0.991-3.089,2.387
		c-0.072,1.235,0.768,2.086,2.64,2.53c2.681,0.636,5.435,0.938,8.044,1.903c5.49,2.028,7.484,8.477,4.017,13.124
		c-1.418,1.9-3.411,2.871-5.654,3.392c-3.592,0.831-7.157,0.783-10.659-0.436c-3.761-1.309-6.066-4.493-6.314-8.516
		c-0.037-0.588,0.15-0.672,0.623-0.665c1.072,0.014,2.145,0.004,3.217,0.004C163.018,36.374,163.018,36.354,163.018,36.333z"/>
	<path fill-rule="evenodd" clip-rule="evenodd" fill="#1372BA" d="M61.286,68.399c0.089,2.525-0.297,4.979-1.257,7.309
		c-1.607,3.903-4.42,6.507-8.465,7.66c-3.495,0.996-7.016,0.994-10.459-0.179C35.642,81.327,32.82,77.24,32,71.631
		c-0.525-3.593-0.287-7.128,1.128-10.528c1.963-4.716,5.563-7.304,10.45-8.146c3.296-0.567,6.556-0.318,9.65,1.044
		c4.694,2.066,6.994,5.936,7.841,10.863C61.271,66.037,61.313,67.215,61.286,68.399z M55.835,68.816
		c-0.006-1.349-0.067-2.292-0.188-3.241c-0.643-5.025-3.774-8.767-9.507-8.563c-3.913,0.141-6.976,2.329-8.148,6.107
		c-0.863,2.782-0.971,5.619-0.498,8.464c0.807,4.849,3.263,7.5,7.702,8.068c4.527,0.58,8.232-1.153,9.861-5.91
		C55.647,72.017,55.852,70.234,55.835,68.816z"/>
	<path fill-rule="evenodd" clip-rule="evenodd" fill="#1372BA" d="M183.949,83.293c-1.84,0-3.586-0.016-5.332,0.009
		c-0.487,0.008-0.554-0.325-0.706-0.645c-1.66-3.482-3.343-6.953-4.979-10.446c-0.277-0.593-0.588-0.782-1.243-0.762
		c-1.95,0.061-3.905,0.048-5.856,0.008c-0.637-0.013-0.826,0.17-0.82,0.821c0.031,3.387-0.004,6.773,0.03,10.16
		c0.007,0.692-0.181,0.905-0.867,0.873c-1.201-0.057-2.408-0.043-3.611-0.004c-0.557,0.019-0.77-0.181-0.719-0.724
		c0.015-0.162-0.004-0.328-0.004-0.492c0-9.174,0.01-18.348-0.016-27.521c-0.002-0.816,0.136-1.124,1.05-1.107
		c3.48,0.065,6.963,0.018,10.445,0.026c2.463,0.007,4.844,0.403,7.058,1.574c2.847,1.506,4.167,3.937,4.207,7.118
		c0.04,3.268-1.117,5.931-4.088,7.488c-0.935,0.49-0.961,0.845-0.498,1.728c1.895,3.616,3.697,7.279,5.53,10.928
		C183.673,82.61,183.785,82.911,183.949,83.293z M165.026,62.39c0,1.381,0.026,2.763-0.012,4.142
		c-0.017,0.597,0.154,0.803,0.765,0.791c1.854-0.037,3.711,0.041,5.563-0.032c1.555-0.062,3.148-0.169,4.419-1.25
		c1.611-1.371,1.598-3.245,1.264-5.081c-0.363-1.996-1.941-2.784-3.721-3.109c-2.577-0.471-5.192-0.121-7.789-0.227
		c-0.496-0.02-0.493,0.271-0.491,0.624C165.03,59.628,165.026,61.009,165.026,62.39z"/>
	<path fill-rule="evenodd" clip-rule="evenodd" fill="#1372BA" d="M188.38,68.383c0.001-4.638,0.015-9.275-0.014-13.914
		c-0.004-0.733,0.146-1.004,0.951-0.999c6.38,0.036,12.76,0.033,19.14,0.002c0.753-0.004,0.964,0.228,0.912,0.95
		c-0.058,0.818-0.062,1.647,0.001,2.465c0.056,0.729-0.238,0.856-0.889,0.853c-4.655-0.025-9.311,0.004-13.965-0.03
		c-0.73-0.006-0.953,0.191-0.937,0.933c0.047,2.104,0.049,4.21,0.006,6.313c-0.014,0.686,0.231,0.807,0.842,0.804
		c4.361-0.024,8.724,0.01,13.085-0.034c0.8-0.008,1,0.249,0.949,0.997c-0.059,0.851-0.067,1.713,0,2.563
		c0.063,0.791-0.345,0.817-0.938,0.815c-4.297-0.017-8.594,0.011-12.891-0.026c-0.781-0.007-1.072,0.162-1.051,1.014
		c0.058,2.301,0.062,4.605-0.003,6.906c-0.025,0.871,0.284,1,1.05,0.995c4.851-0.034,9.701,0.004,14.551-0.036
		c0.872-0.007,1.048,0.247,0.863,1.064c-0.187,0.828-0.242,1.687-0.345,2.533c-0.064,0.526-0.258,0.765-0.867,0.762
		c-6.543-0.027-13.086-0.028-19.629,0.001c-0.735,0.004-0.837-0.279-0.834-0.918C188.39,77.724,188.38,73.053,188.38,68.383z"/>
	<path fill-rule="evenodd" clip-rule="evenodd" fill="#3FB54C" d="M29.539,41.271c-1.646,0.118-3.026,1.019-4.516,1.586
		c-2.457,0.938-4.884,1.953-7.313,2.96c-0.542,0.225-1.036,0.225-1.57,0.006c-3.681-1.507-7.363-3.009-11.052-4.495
		c-0.504-0.203-0.71-0.458-0.707-1.055c0.033-4.769,0.038-9.538-0.002-14.308c-0.005-0.664,0.247-0.882,0.786-1.076
		c3.653-1.317,7.294-2.667,10.947-3.982c0.557-0.2,0.696-0.522,0.693-1.093c-0.024-4.67,0-9.341-0.032-14.011
		C16.768,5.02,16.927,4.6,17.747,4.311c3.676-1.294,7.322-2.678,10.975-4.04c0.507-0.189,0.976-0.256,1.508-0.052
		c3.758,1.44,7.52,2.872,11.295,4.267c0.592,0.219,0.758,0.509,0.756,1.131c-0.019,5.031,0.002,10.063,0.012,15.096
		c-3.913,1.587-7.816,3.201-11.749,4.738c-0.757,0.296-0.946,0.684-0.941,1.445c0.033,4.303,0.019,8.605,0.013,12.908
		C29.616,40.293,29.566,40.782,29.539,41.271z M16.247,37.419c0.001,0,0.003,0,0.005,0c0-2.037-0.016-4.075,0.011-6.112
		c0.007-0.498-0.126-0.787-0.604-0.962c-3.066-1.123-6.13-2.249-9.182-3.41c-0.712-0.271-0.901-0.11-0.896,0.642
		c0.025,3.943,0.024,7.887-0.002,11.831c-0.004,0.604,0.228,0.854,0.755,1.063c3.007,1.195,6.006,2.411,8.992,3.659
		c0.802,0.335,0.945,0.062,0.932-0.697C16.224,41.429,16.247,39.424,16.247,37.419z M28.833,17c0-2.036-0.021-4.073,0.014-6.109
		c0.009-0.555-0.178-0.821-0.677-1.003c-3.05-1.108-6.095-2.229-9.133-3.369c-0.582-0.219-0.792-0.153-0.787,0.54
		c0.025,3.975,0.018,7.949,0.003,11.924c-0.001,0.453,0.122,0.709,0.563,0.885c3.104,1.236,6.2,2.49,9.292,3.757
		c0.566,0.231,0.741,0.105,0.733-0.514C28.815,21.074,28.831,19.037,28.833,17z M30.261,17.03c-0.001,0-0.002,0-0.004,0
		c0,1.972,0.038,3.945-0.017,5.917c-0.024,0.883,0.252,0.9,0.946,0.614c2.976-1.228,5.962-2.427,8.956-3.608
		c0.501-0.198,0.679-0.462,0.675-1.013c-0.024-3.911-0.026-7.823,0-11.735c0.004-0.707-0.146-0.844-0.826-0.59
		c-3.012,1.126-6.037,2.219-9.071,3.283c-0.548,0.192-0.668,0.505-0.665,1.018C30.27,12.954,30.261,14.992,30.261,17.03z
		 M17.623,37.406c0,1.973-0.003,3.946,0.001,5.92c0.002,1.096,0.026,1.119,1.001,0.728c2.945-1.18,5.882-2.379,8.829-3.551
		c0.582-0.231,0.837-0.541,0.83-1.231c-0.04-3.848-0.044-7.696-0.001-11.545c0.01-0.93-0.291-0.941-1.015-0.671
		c-2.939,1.101-5.887,2.182-8.849,3.218c-0.645,0.227-0.826,0.555-0.813,1.212C17.648,33.458,17.622,35.433,17.623,37.406z
		 M16.86,29.359c0.217-0.054,0.346-0.074,0.466-0.117c2.893-1.038,5.787-2.072,8.672-3.132c0.167-0.062,0.51-0.071,0.468-0.387
		c-0.036-0.272-0.321-0.276-0.53-0.356c-2.811-1.073-5.621-2.149-8.429-3.229c-0.378-0.146-0.755-0.172-1.137-0.029
		c-2.815,1.052-5.632,2.1-8.442,3.163c-0.191,0.072-0.511,0.036-0.537,0.334c-0.033,0.37,0.33,0.367,0.546,0.448
		c2.236,0.837,4.479,1.655,6.72,2.481C15.416,28.815,16.169,29.101,16.86,29.359z M39.414,5.266
		c-3.367-1.28-6.455-2.449-9.537-3.634c-0.311-0.118-0.555-0.026-0.834,0.078c-2.735,1.018-5.478,2.019-8.21,3.044
		c-0.271,0.103-0.671,0.076-0.768,0.569c2.513,0.938,5.05,1.824,7.536,2.84c1.334,0.544,2.523,0.588,3.886,0.023
		C33.998,7.146,36.584,6.295,39.414,5.266z"/>
	<path fill-rule="evenodd" clip-rule="evenodd" fill="#1372BA" d="M0.123,68.8c-0.031-3.739,0.6-6.998,2.428-9.906
		c2.49-3.959,6.223-5.832,10.757-6.142c2.883-0.197,5.705,0.118,8.321,1.525c3.16,1.7,4.579,4.598,5.401,7.919
		c0.101,0.408-0.123,0.518-0.461,0.563c-1.414,0.189-2.826,0.384-4.238,0.583c-0.302,0.042-0.458-0.022-0.542-0.365
		c-0.146-0.604-0.34-1.198-0.567-1.775c-1.047-2.664-3.047-3.966-5.834-4.16c-6.303-0.44-8.973,3.961-9.582,8.747
		c-0.377,2.968-0.208,5.889,0.931,8.698c2.286,5.639,8.034,6.156,11.778,4.43c1.949-0.899,2.924-2.642,3.304-4.706
		c0.139-0.758,0.421-1.023,1.195-0.982c1.331,0.069,2.668,0.033,4.001,0.012c0.495-0.008,0.646,0.062,0.545,0.652
		c-0.984,5.767-5.091,9.523-10.879,10.039c-2.965,0.263-5.846,0.074-8.597-1.105c-4.32-1.854-6.575-5.371-7.53-9.857
		C0.24,71.493,0.057,69.991,0.123,68.8z"/>
	<path fill-rule="evenodd" clip-rule="evenodd" fill="#1372BA" d="M126.484,83.289c0.843-2.112,1.645-4.14,2.459-6.16
		c3.044-7.551,6.101-15.096,9.125-22.654c0.295-0.737,0.654-1.065,1.482-1.007c1.198,0.085,2.408,0.04,3.612,0.012
		c0.448-0.01,0.704,0.122,0.879,0.559c3.863,9.614,7.738,19.225,11.608,28.835c0.046,0.116,0.068,0.241,0.117,0.419
		c-1.71,0-3.367-0.019-5.024,0.011c-0.491,0.009-0.659-0.217-0.818-0.635c-0.802-2.11-1.658-4.198-2.445-6.314
		c-0.205-0.55-0.467-0.737-1.048-0.732c-3.581,0.026-7.163,0.031-10.744-0.003c-0.64-0.006-0.909,0.234-1.119,0.803
		c-0.771,2.086-1.591,4.154-2.383,6.232c-0.131,0.344-0.211,0.653-0.7,0.646C129.862,83.272,128.238,83.289,126.484,83.289z
		 M141.078,59.237c-0.184,0.29-0.269,0.385-0.311,0.497c-1.402,3.698-2.788,7.403-4.21,11.095c-0.278,0.723,0.114,0.669,0.576,0.668
		c2.506-0.006,5.012-0.001,7.518-0.005c0.335-0.001,0.671-0.03,1.089-0.05C144.179,67.353,142.666,63.394,141.078,59.237z"/>
	<path fill-rule="evenodd" clip-rule="evenodd" fill="#1372BA" d="M104.947,68.316c0-4.639,0.017-9.276-0.017-13.914
		c-0.005-0.73,0.172-0.94,0.915-0.932c3.645,0.041,7.292-0.002,10.938,0.024c2.593,0.019,5.108,0.438,7.383,1.802
		c1.935,1.16,3.068,2.894,3.399,5.128c0.435,2.931,0.31,5.784-1.626,8.229c-1.571,1.983-3.79,2.777-6.173,3.193
		c-2.874,0.5-5.777,0.274-8.67,0.286c-0.767,0.003-0.992,0.212-0.981,0.992c0.043,3.092-0.01,6.185,0.038,9.275
		c0.011,0.769-0.227,0.945-0.935,0.909c-1.137-0.058-2.28-0.053-3.417,0.001c-0.685,0.031-0.875-0.191-0.871-0.883
		C104.96,77.724,104.946,73.021,104.947,68.316z M110.133,62.755c0,1.513,0,3.024-0.001,4.536c0,0.335-0.037,0.671,0.472,0.651
		c2.692-0.105,5.404,0.272,8.077-0.23c2.719-0.511,3.956-2.196,3.917-5.13c-0.037-2.828-1.258-4.289-4.05-4.752
		c-2.616-0.433-5.258-0.098-7.886-0.206c-0.56-0.022-0.534,0.312-0.532,0.694C110.136,59.797,110.132,61.275,110.133,62.755z"/>
	<path fill-rule="evenodd" clip-rule="evenodd" fill="#3FB54C" d="M197.398,17.051c3.679,0,7.357,0.017,11.036-0.016
		c0.668-0.006,0.905,0.154,0.882,0.862c-0.052,1.577-0.052,3.158-0.007,4.736c0.018,0.648-0.17,0.843-0.814,0.831
		c-2.147-0.039-4.297,0.012-6.444-0.035c-0.741-0.017-0.983,0.162-0.979,0.963c0.035,6.776,0.008,13.553,0.04,20.329
		c0.004,0.794-0.157,1.081-1.002,1.048c-1.787-0.071-3.58-0.013-5.37-0.027c-1.283-0.01-1.221,0.271-1.221-1.287
		c-0.001-6.645-0.016-13.289,0.019-19.934c0.005-0.84-0.15-1.13-1.052-1.096c-2.113,0.079-4.231,0.006-6.347,0.037
		c-0.61,0.009-0.862-0.125-0.84-0.81c0.051-1.577,0.049-3.158,0-4.736c-0.021-0.689,0.183-0.888,0.868-0.882
		C189.911,17.067,193.654,17.051,197.398,17.051z"/>
	<path fill-rule="evenodd" clip-rule="evenodd" fill="#3FB54C" d="M63.384,31.43c0-4.471,0.019-8.94-0.018-13.41
		c-0.006-0.778,0.201-1.01,0.974-0.987c1.885,0.056,3.774,0.06,5.659,0.002c0.766-0.024,0.907,0.246,0.905,0.954
		c-0.024,6.771,0.005,13.542-0.036,20.313c-0.006,0.89,0.228,1.081,1.079,1.068c3.544-0.05,7.091,0.014,10.636-0.036
		c0.838-0.012,0.939,0.218,0.822,0.987c-0.231,1.521-0.39,3.06-0.478,4.597c-0.042,0.729-0.34,0.843-0.962,0.842
		c-5.887-0.018-11.775-0.029-17.663,0.01c-0.835,0.006-0.935-0.313-0.931-1.027C63.397,40.304,63.384,35.866,63.384,31.43z"/>
	<path fill-rule="evenodd" clip-rule="evenodd" fill="#3FB54C" d="M155.479,31.435c0,4.473-0.012,8.945,0.014,13.418
		c0.004,0.662-0.139,0.923-0.851,0.907c-1.984-0.047-3.97-0.033-5.955-0.008c-0.546,0.008-0.73-0.153-0.729-0.724
		c0.016-9.076,0.018-18.154-0.002-27.23c-0.002-0.644,0.242-0.76,0.801-0.752c1.92,0.025,3.842,0.041,5.761-0.01
		c0.757-0.021,0.988,0.187,0.981,0.98C155.459,22.488,155.479,26.962,155.479,31.435z"/>
	<path fill-rule="evenodd" clip-rule="evenodd" fill="#1372BA" d="M29.539,41.271c0.027-0.489,0.077-0.979,0.077-1.468
		c0.006-4.303,0.02-8.605-0.013-12.908c-0.005-0.762,0.184-1.149,0.941-1.445c3.932-1.537,7.835-3.151,11.749-4.738
		c3.126,1.159,6.255,2.313,9.379,3.479c1.03,0.386,2.441,0.528,2.96,1.285c0.523,0.763,0.173,2.15,0.175,3.265
		c0.007,3.878-0.021,7.757,0.02,11.635c0.007,0.717-0.229,1.025-0.864,1.277c-3.739,1.479-7.461,3.002-11.189,4.509
		c-0.391,0.157-0.749,0.278-1.207,0.09c-3.871-1.589-7.755-3.144-11.633-4.715C29.789,41.479,29.669,41.361,29.539,41.271z
		 M53.288,27c-3.456,1.248-6.742,2.44-10.032,3.619c-0.434,0.155-0.474,0.476-0.474,0.855c0,4.107,0.003,8.215-0.013,12.322
		c-0.002,0.561,0.136,0.688,0.671,0.469c3.119-1.276,6.247-2.529,9.373-3.788c0.289-0.116,0.484-0.252,0.483-0.631
		C53.283,35.612,53.288,31.376,53.288,27z M41.323,44.47c0-4.478-0.005-8.81,0.008-13.143c0.001-0.409-0.187-0.581-0.523-0.704
		c-3.123-1.152-6.245-2.306-9.363-3.471c-0.429-0.16-0.652-0.166-0.65,0.406c0.014,4.041,0.013,8.083-0.001,12.125
		c-0.001,0.386,0.12,0.602,0.469,0.741C34.561,41.746,37.858,43.075,41.323,44.47z M51.569,26c-0.242-0.438-0.595-0.442-0.879-0.551
		c-2.209-0.849-4.455-1.612-6.624-2.555c-1.375-0.598-2.598-0.604-3.981-0.029c-2.479,1.03-5.022,1.904-7.621,2.874
		c0.184,0.152,0.269,0.267,0.379,0.308c2.919,1.078,5.847,2.133,8.755,3.238c0.465,0.177,0.829,0.05,1.213-0.086
		c1.499-0.532,2.988-1.09,4.481-1.637C48.706,27.045,50.119,26.529,51.569,26z"/>
	<path fill-rule="evenodd" clip-rule="evenodd" fill="#3FB54C" d="M151.653,11.521c-1.04,0-2.082-0.022-3.121,0.01
		c-0.503,0.016-0.677-0.135-0.67-0.661c0.028-1.972,0.028-3.943,0.002-5.914c-0.008-0.521,0.154-0.674,0.663-0.668
		c2.146,0.024,4.292,0.021,6.438,0.002c0.458-0.004,0.623,0.127,0.618,0.611c-0.023,2.004-0.022,4.01,0.001,6.013
		c0.005,0.479-0.151,0.627-0.614,0.616C153.865,11.502,152.759,11.521,151.653,11.521z"/>
</g>
</svg>
