<?xml version="1.0" encoding="utf-8"?>
<!-- Generator: Adobe Illustrator 19.0.0, SVG Export Plug-In . SVG Version: 6.00 Build 0)  -->
<svg version="1.1" id="Layer_1" xmlns="http://www.w3.org/2000/svg" xmlns:xlink="http://www.w3.org/1999/xlink" x="0px" y="0px"
	 viewBox="-200 354.5 210.1 84.5" style="enable-background:new -200 354.5 210.1 84.5;" xml:space="preserve">
<style type="text/css">
	.st0{fill:#1372BA;}
	.st1{fill:#FFFFFF;}
</style>
<g>
	<path class="st0" d="M-107.1,416.6c-1.5,3.8-3,7.5-4.5,11.3c-1.2,3.1-2.5,6.1-3.7,9.2c-0.2,0.6-0.5,0.8-1.1,0.8
		c-1.1-0.1-2.5,0.4-3.3-0.2c-0.8-0.6-0.9-2-1.3-3c-2.2-5.8-4.5-11.5-6.7-17.3c-0.1-0.3-0.2-0.5-0.5-0.7c0,0.5,0,1,0,1.5
		c0,6.2,0,12.5,0,18.7c0,0.8-0.2,1-1,1c-0.9-0.1-1.8-0.1-2.7,0c-0.8,0.1-1.1-0.2-1.1-1.1c0.1-4,0-8.1,0-12.1c0-5.2,0-10.3,0-15.5
		c0-1,0.3-1.2,1.2-1.2c1.4,0.1,2.7,0.1,4.1,0c1-0.1,1.3,0.3,1.6,1.2c2.7,7.3,5.5,14.5,8.2,21.7c0.1,0.2,0.2,0.4,0.4,0.8
		c0.5-1.3,1-2.4,1.4-3.6c2.5-6.3,5-12.7,7.4-19c0.3-0.8,0.7-1.2,1.6-1.1c1.5,0.1,2.9,0.1,4.4,0c0.6,0,0.7,0.2,0.7,0.7
		c0,9.4,0,18.9,0,28.3c0,0.6-0.1,0.8-0.8,0.8c-1.1-0.1-2.2-0.1-3.3,0c-0.7,0-0.8-0.2-0.8-0.9c0-6.5,0-13,0-19.4c0-0.3,0-0.6,0-0.9
		C-106.9,416.6-107,416.6-107.1,416.6z"/>
	<path class="st1" d="M-86.5,385.5c0,2.9-0.4,5.8-1.6,8.4c-1.5,3.2-4,5.4-7.4,6.4c-3.7,1.1-7.4,1.1-11-0.4c-3.3-1.3-5.6-3.7-6.7-7.1
		c-1.6-4.7-1.6-9.4,0.2-14c1.5-3.9,4.4-6.3,8.4-7.4c2.9-0.8,5.9-0.8,8.8,0c5.3,1.5,8.1,5.2,9.1,10.6
		C-86.6,383.2-86.5,384.3-86.5,385.5z M-94.3,386c0-1.7-0.2-3.4-0.8-5c-0.8-1.9-2.1-3.1-4.2-3.4c-2.2-0.3-4.4-0.1-5.7,2.1
		c-2.2,3.7-2,7.6-0.6,11.5c0.8,2.1,2.8,3.2,5,3.2c2.6,0,4.5-1,5.4-3.5C-94.5,389.4-94.3,387.7-94.3,386z"/>
	<path class="st1" d="M-56.9,390.6c0,1.8-0.1,3.6,0,5.4c0,0.8-0.2,1.2-0.8,1.6c-4,2.7-8.3,3.7-13.1,3.4c-2.6-0.2-5-1-7.2-2.6
		c-2.7-2-4-4.8-4.6-8c-0.7-3.8-0.6-7.5,0.7-11.2c1.7-4.8,5.2-7.4,10.1-8.1c3.7-0.5,7.2-0.1,10.4,2c2.2,1.5,3.4,3.7,4,6.3
		c0.1,0.4,0,0.5-0.4,0.6c-2.2,0.2-4.4,0.4-6.6,0.7c-0.3,0-0.5-0.1-0.6-0.4c-0.7-2.5-2.5-3.3-4.8-3.1c-2.3,0.1-3.9,1.3-4.6,3.5
		c-1.1,3.6-1.2,7.3,0.2,10.9c0.6,1.6,1.9,2.6,3.5,3c2.1,0.4,4.1,0.4,6.1-0.5c0.5-0.2,0.8-0.5,0.7-1.1c-0.1-0.7-0.1-1.4,0-2.2
		c0-0.5-0.2-0.7-0.7-0.7c-1.1,0-2.1,0-3.2,0c-0.5,0-0.6-0.1-0.6-0.6c0-1.6,0-3.3,0-4.9c0-0.5,0.2-0.7,0.7-0.7c3.4,0,6.8,0,10.2,0
		c0.5,0,0.7,0.2,0.6,0.7C-56.9,386.6-56.9,388.6-56.9,390.6C-56.9,390.6-56.9,390.6-56.9,390.6z"/>
	<path class="st1" d="M-37,390.8c0.4,0,0.8,0,1.2,0c1.4-0.1,2.6-0.2,2.9,1.8c0.2,1,1.1,1.5,2,1.8c1.6,0.6,3.2,0.5,4.8,0.1
		c1.3-0.4,2-1.3,2-2.5c0-1.2-0.6-2.1-1.9-2.4c-2.1-0.5-4.3-0.9-6.5-1.4c-2-0.5-4-1.1-5.5-2.6c-4.1-3.8-2.8-11.2,2.4-13.4
		c4.3-1.8,8.7-1.8,13-0.1c3.1,1.2,4.7,3.7,5.4,6.9c0.1,0.6-0.1,0.8-0.7,0.9c-1.9,0.2-3.8,0.4-5.7,0.6c-0.3,0-0.7,0.1-0.9-0.3
		c-1.4-2.7-2.4-3.2-5.3-3c-1.9,0.2-3,1-3.1,2.4c-0.1,1.2,0.8,2.1,2.6,2.5c2.7,0.6,5.4,0.9,8,1.9c5.5,2,7.5,8.5,4,13.1
		c-1.4,1.9-3.4,2.9-5.7,3.4c-3.6,0.8-7.2,0.8-10.7-0.4c-3.8-1.3-6.1-4.5-6.3-8.5c0-0.6,0.1-0.7,0.6-0.7
		C-39.1,390.9-38.1,390.9-37,390.8C-37,390.9-37,390.8-37,390.8z"/>
	<path class="st0" d="M-138.7,422.9c0.1,2.5-0.3,5-1.3,7.3c-1.6,3.9-4.4,6.5-8.5,7.7c-3.5,1-7,1-10.5-0.2c-5.5-1.9-8.3-5.9-9.1-11.6
		c-0.5-3.6-0.3-7.1,1.1-10.5c2-4.7,5.6-7.3,10.5-8.1c3.3-0.6,6.6-0.3,9.6,1c4.7,2.1,7,5.9,7.8,10.9
		C-138.7,420.5-138.7,421.7-138.7,422.9z M-144.2,423.3c0-1.3-0.1-2.3-0.2-3.2c-0.6-5-3.8-8.8-9.5-8.6c-3.9,0.1-7,2.3-8.1,6.1
		c-0.9,2.8-1,5.6-0.5,8.5c0.8,4.8,3.3,7.5,7.7,8.1c4.5,0.6,8.2-1.2,9.9-5.9C-144.4,426.5-144.1,424.7-144.2,423.3z"/>
	<path class="st0" d="M-16.1,437.8c-1.8,0-3.6,0-5.3,0c-0.5,0-0.6-0.3-0.7-0.6c-1.7-3.5-3.3-7-5-10.4c-0.3-0.6-0.6-0.8-1.2-0.8
		c-1.9,0.1-3.9,0-5.9,0c-0.6,0-0.8,0.2-0.8,0.8c0,3.4,0,6.8,0,10.2c0,0.7-0.2,0.9-0.9,0.9c-1.2-0.1-2.4,0-3.6,0
		c-0.6,0-0.8-0.2-0.7-0.7c0-0.2,0-0.3,0-0.5c0-9.2,0-18.3,0-27.5c0-0.8,0.1-1.1,1.1-1.1c3.5,0.1,7,0,10.4,0c2.5,0,4.8,0.4,7.1,1.6
		c2.8,1.5,4.2,3.9,4.2,7.1c0,3.3-1.1,5.9-4.1,7.5c-0.9,0.5-1,0.8-0.5,1.7c1.9,3.6,3.7,7.3,5.5,10.9
		C-16.3,437.1-16.2,437.4-16.1,437.8z M-35,416.9c0,1.4,0,2.8,0,4.1c0,0.6,0.2,0.8,0.8,0.8c1.9,0,3.7,0,5.6,0
		c1.6-0.1,3.1-0.2,4.4-1.3c1.6-1.4,1.6-3.2,1.3-5.1c-0.4-2-1.9-2.8-3.7-3.1c-2.6-0.5-5.2-0.1-7.8-0.2c-0.5,0-0.5,0.3-0.5,0.6
		C-35,414.1-35,415.5-35,416.9z"/>
	<path class="st0" d="M-11.6,422.9c0-4.6,0-9.3,0-13.9c0-0.7,0.1-1,1-1c6.4,0,12.8,0,19.1,0c0.8,0,1,0.2,0.9,1
		c-0.1,0.8-0.1,1.6,0,2.5c0.1,0.7-0.2,0.9-0.9,0.9c-4.7,0-9.3,0-14,0c-0.7,0-1,0.2-0.9,0.9c0,2.1,0,4.2,0,6.3c0,0.7,0.2,0.8,0.8,0.8
		c4.4,0,8.7,0,13.1,0c0.8,0,1,0.2,0.9,1c-0.1,0.9-0.1,1.7,0,2.6c0.1,0.8-0.3,0.8-0.9,0.8c-4.3,0-8.6,0-12.9,0c-0.8,0-1.1,0.2-1.1,1
		c0.1,2.3,0.1,4.6,0,6.9c0,0.9,0.3,1,1.1,1c4.9,0,9.7,0,14.6,0c0.9,0,1,0.2,0.9,1.1c-0.2,0.8-0.2,1.7-0.3,2.5
		c-0.1,0.5-0.3,0.8-0.9,0.8c-6.5,0-13.1,0-19.6,0c-0.7,0-0.8-0.3-0.8-0.9C-11.6,432.2-11.6,427.5-11.6,422.9z"/>
	<path class="st1" d="M-170.5,395.8c-1.6,0.1-3,1-4.5,1.6c-2.5,0.9-4.9,2-7.3,3c-0.5,0.2-1,0.2-1.6,0c-3.7-1.5-7.4-3-11.1-4.5
		c-0.5-0.2-0.7-0.5-0.7-1.1c0-4.8,0-9.5,0-14.3c0-0.7,0.2-0.9,0.8-1.1c3.7-1.3,7.3-2.7,10.9-4c0.6-0.2,0.7-0.5,0.7-1.1
		c0-4.7,0-9.3,0-14c0-0.8,0.2-1.2,1-1.5c3.7-1.3,7.3-2.7,11-4c0.5-0.2,1-0.3,1.5-0.1c3.8,1.4,7.5,2.9,11.3,4.3
		c0.6,0.2,0.8,0.5,0.8,1.1c0,5,0,10.1,0,15.1c-3.9,1.6-7.8,3.2-11.7,4.7c-0.8,0.3-0.9,0.7-0.9,1.4c0,4.3,0,8.6,0,12.9
		C-170.4,394.8-170.4,395.3-170.5,395.8z M-183.8,391.9C-183.8,391.9-183.8,391.9-183.8,391.9c0-2,0-4.1,0-6.1c0-0.5-0.1-0.8-0.6-1
		c-3.1-1.1-6.1-2.2-9.2-3.4c-0.7-0.3-0.9-0.1-0.9,0.6c0,3.9,0,7.9,0,11.8c0,0.6,0.2,0.9,0.8,1.1c3,1.2,6,2.4,9,3.7
		c0.8,0.3,0.9,0.1,0.9-0.7C-183.8,395.9-183.8,393.9-183.8,391.9z M-171.2,371.5c0-2,0-4.1,0-6.1c0-0.6-0.2-0.8-0.7-1
		c-3.1-1.1-6.1-2.2-9.1-3.4c-0.6-0.2-0.8-0.2-0.8,0.5c0,4,0,7.9,0,11.9c0,0.5,0.1,0.7,0.6,0.9c3.1,1.2,6.2,2.5,9.3,3.8
		c0.6,0.2,0.7,0.1,0.7-0.5C-171.2,375.6-171.2,373.5-171.2,371.5z M-169.7,371.5C-169.7,371.5-169.7,371.5-169.7,371.5
		c0,2,0,3.9,0,5.9c0,0.9,0.3,0.9,0.9,0.6c3-1.2,6-2.4,9-3.6c0.5-0.2,0.7-0.5,0.7-1c0-3.9,0-7.8,0-11.7c0-0.7-0.1-0.8-0.8-0.6
		c-3,1.1-6,2.2-9.1,3.3c-0.5,0.2-0.7,0.5-0.7,1C-169.7,367.4-169.7,369.5-169.7,371.5z M-182.4,391.9c0,2,0,3.9,0,5.9
		c0,1.1,0,1.1,1,0.7c2.9-1.2,5.9-2.4,8.8-3.6c0.6-0.2,0.8-0.5,0.8-1.2c0-3.8,0-7.7,0-11.5c0-0.9-0.3-0.9-1-0.7
		c-2.9,1.1-5.9,2.2-8.8,3.2c-0.6,0.2-0.8,0.6-0.8,1.2C-182.4,387.9-182.4,389.9-182.4,391.9z M-183.1,383.8c0.2-0.1,0.3-0.1,0.5-0.1
		c2.9-1,5.8-2.1,8.7-3.1c0.2-0.1,0.5-0.1,0.5-0.4c0-0.3-0.3-0.3-0.5-0.4c-2.8-1.1-5.6-2.1-8.4-3.2c-0.4-0.1-0.8-0.2-1.1,0
		c-2.8,1.1-5.6,2.1-8.4,3.2c-0.2,0.1-0.5,0-0.5,0.3c0,0.4,0.3,0.4,0.5,0.4c2.2,0.8,4.5,1.7,6.7,2.5
		C-184.6,383.3-183.8,383.6-183.1,383.8z M-160.6,359.8c-3.4-1.3-6.5-2.4-9.5-3.6c-0.3-0.1-0.6,0-0.8,0.1c-2.7,1-5.5,2-8.2,3
		c-0.3,0.1-0.7,0.1-0.8,0.6c2.5,0.9,5.1,1.8,7.5,2.8c1.3,0.5,2.5,0.6,3.9,0C-166,361.6-163.4,360.8-160.6,359.8z"/>
	<path class="st0" d="M-199.9,423.3c0-3.7,0.6-7,2.4-9.9c2.5-4,6.2-5.8,10.8-6.1c2.9-0.2,5.7,0.1,8.3,1.5c3.2,1.7,4.6,4.6,5.4,7.9
		c0.1,0.4-0.1,0.5-0.5,0.6c-1.4,0.2-2.8,0.4-4.2,0.6c-0.3,0-0.5,0-0.5-0.4c-0.1-0.6-0.3-1.2-0.6-1.8c-1-2.7-3-4-5.8-4.2
		c-6.3-0.4-9,4-9.6,8.7c-0.4,3-0.2,5.9,0.9,8.7c2.3,5.6,8,6.2,11.8,4.4c1.9-0.9,2.9-2.6,3.3-4.7c0.1-0.8,0.4-1,1.2-1
		c1.3,0.1,2.7,0,4,0c0.5,0,0.6,0.1,0.5,0.7c-1,5.8-5.1,9.5-10.9,10c-3,0.3-5.8,0.1-8.6-1.1c-4.3-1.9-6.6-5.4-7.5-9.9
		C-199.8,426-199.9,424.5-199.9,423.3z"/>
	<path class="st0" d="M-73.5,437.8c0.8-2.1,1.6-4.1,2.5-6.2c3-7.6,6.1-15.1,9.1-22.7c0.3-0.7,0.7-1.1,1.5-1c1.2,0.1,2.4,0,3.6,0
		c0.4,0,0.7,0.1,0.9,0.6c3.9,9.6,7.7,19.2,11.6,28.8c0,0.1,0.1,0.2,0.1,0.4c-1.7,0-3.4,0-5,0c-0.5,0-0.7-0.2-0.8-0.6
		c-0.8-2.1-1.7-4.2-2.4-6.3c-0.2-0.5-0.5-0.7-1-0.7c-3.6,0-7.2,0-10.7,0c-0.6,0-0.9,0.2-1.1,0.8c-0.8,2.1-1.6,4.2-2.4,6.2
		c-0.1,0.3-0.2,0.7-0.7,0.6C-70.1,437.8-71.8,437.8-73.5,437.8z M-58.9,413.7c-0.2,0.3-0.3,0.4-0.3,0.5c-1.4,3.7-2.8,7.4-4.2,11.1
		c-0.3,0.7,0.1,0.7,0.6,0.7c2.5,0,5,0,7.5,0c0.3,0,0.7,0,1.1,0C-55.8,421.8-57.3,417.9-58.9,413.7z"/>
	<path class="st0" d="M-95.1,422.8c0-4.6,0-9.3,0-13.9c0-0.7,0.2-0.9,0.9-0.9c3.6,0,7.3,0,10.9,0c2.6,0,5.1,0.4,7.4,1.8
		c1.9,1.2,3.1,2.9,3.4,5.1c0.4,2.9,0.3,5.8-1.6,8.2c-1.6,2-3.8,2.8-6.2,3.2c-2.9,0.5-5.8,0.3-8.7,0.3c-0.8,0-1,0.2-1,1
		c0,3.1,0,6.2,0,9.3c0,0.8-0.2,0.9-0.9,0.9c-1.1-0.1-2.3-0.1-3.4,0c-0.7,0-0.9-0.2-0.9-0.9C-95,432.2-95.1,427.5-95.1,422.8z
		 M-89.9,417.2c0,1.5,0,3,0,4.5c0,0.3,0,0.7,0.5,0.7c2.7-0.1,5.4,0.3,8.1-0.2c2.7-0.5,4-2.2,3.9-5.1c0-2.8-1.3-4.3-4.1-4.8
		c-2.6-0.4-5.3-0.1-7.9-0.2c-0.6,0-0.5,0.3-0.5,0.7C-89.9,414.3-89.9,415.8-89.9,417.2z"/>
	<path class="st1" d="M-2.6,371.5c3.7,0,7.4,0,11,0c0.7,0,0.9,0.2,0.9,0.9c-0.1,1.6-0.1,3.2,0,4.7c0,0.6-0.2,0.8-0.8,0.8
		c-2.1,0-4.3,0-6.4,0c-0.7,0-1,0.2-1,1c0,6.8,0,13.6,0,20.3c0,0.8-0.2,1.1-1,1c-1.8-0.1-3.6,0-5.4,0c-1.3,0-1.2,0.3-1.2-1.3
		c0-6.6,0-13.3,0-19.9c0-0.8-0.1-1.1-1.1-1.1c-2.1,0.1-4.2,0-6.3,0c-0.6,0-0.9-0.1-0.8-0.8c0.1-1.6,0-3.2,0-4.7
		c0-0.7,0.2-0.9,0.9-0.9C-10.1,371.6-6.3,371.5-2.6,371.5z"/>
	<path class="st1" d="M-136.6,385.9c0-4.5,0-8.9,0-13.4c0-0.8,0.2-1,1-1c1.9,0.1,3.8,0.1,5.7,0c0.8,0,0.9,0.2,0.9,1
		c0,6.8,0,13.5,0,20.3c0,0.9,0.2,1.1,1.1,1.1c3.5,0,7.1,0,10.6,0c0.8,0,0.9,0.2,0.8,1c-0.2,1.5-0.4,3.1-0.5,4.6c0,0.7-0.3,0.8-1,0.8
		c-5.9,0-11.8,0-17.7,0c-0.8,0-0.9-0.3-0.9-1C-136.6,394.8-136.6,390.4-136.6,385.9z"/>
	<path class="st1" d="M-44.5,385.9c0,4.5,0,8.9,0,13.4c0,0.7-0.1,0.9-0.9,0.9c-2,0-4,0-6,0c-0.5,0-0.7-0.2-0.7-0.7
		c0-9.1,0-18.2,0-27.2c0-0.6,0.2-0.8,0.8-0.8c1.9,0,3.8,0,5.8,0c0.8,0,1,0.2,1,1C-44.5,377-44.5,381.5-44.5,385.9z"/>
	<path class="st0" d="M-170.5,395.8c0-0.5,0.1-1,0.1-1.5c0-4.3,0-8.6,0-12.9c0-0.8,0.2-1.1,0.9-1.4c3.9-1.5,7.8-3.2,11.7-4.7
		c3.1,1.2,6.3,2.3,9.4,3.5c1,0.4,2.4,0.5,3,1.3c0.5,0.8,0.2,2.1,0.2,3.3c0,3.9,0,7.8,0,11.6c0,0.7-0.2,1-0.9,1.3
		c-3.7,1.5-7.5,3-11.2,4.5c-0.4,0.2-0.7,0.3-1.2,0.1c-3.9-1.6-7.8-3.1-11.6-4.7C-170.2,396-170.3,395.9-170.5,395.8z M-146.7,381.5
		c-3.5,1.2-6.7,2.4-10,3.6c-0.4,0.2-0.5,0.5-0.5,0.9c0,4.1,0,8.2,0,12.3c0,0.6,0.1,0.7,0.7,0.5c3.1-1.3,6.2-2.5,9.4-3.8
		c0.3-0.1,0.5-0.3,0.5-0.6C-146.7,390.1-146.7,385.9-146.7,381.5z M-158.7,399c0-4.5,0-8.8,0-13.1c0-0.4-0.2-0.6-0.5-0.7
		c-3.1-1.2-6.2-2.3-9.4-3.5c-0.4-0.2-0.7-0.2-0.7,0.4c0,4,0,8.1,0,12.1c0,0.4,0.1,0.6,0.5,0.7C-165.4,396.2-162.1,397.6-158.7,399z
		 M-148.4,380.5c-0.2-0.4-0.6-0.4-0.9-0.6c-2.2-0.8-4.5-1.6-6.6-2.6c-1.4-0.6-2.6-0.6-4,0c-2.5,1-5,1.9-7.6,2.9
		c0.2,0.2,0.3,0.3,0.4,0.3c2.9,1.1,5.8,2.1,8.8,3.2c0.5,0.2,0.8,0,1.2-0.1c1.5-0.5,3-1.1,4.5-1.6
		C-151.3,381.5-149.9,381-148.4,380.5z"/>
	<path class="st1" d="M-48.3,366c-1,0-2.1,0-3.1,0c-0.5,0-0.7-0.1-0.7-0.7c0-2,0-3.9,0-5.9c0-0.5,0.2-0.7,0.7-0.7c2.1,0,4.3,0,6.4,0
		c0.5,0,0.6,0.1,0.6,0.6c0,2,0,4,0,6c0,0.5-0.2,0.6-0.6,0.6C-46.1,366-47.2,366-48.3,366z"/>
</g>
</svg>
